<?xml version="1.0" encoding="UTF-8"?> <svg xmlns="http://www.w3.org/2000/svg" width="94" height="97" viewBox="0 0 94 97" fill="none"><path d="M80.0004 44.4001C80.0004 64.6001 57.2004 96.1002 37.0004 96.1002C16.8004 96.1002 0.400391 79.7002 0.400391 59.5002C0.400391 39.3002 16.8004 22.9001 37.0004 22.9001C57.2004 22.9001 80.0004 24.2002 80.0004 44.5002V44.4001Z" fill="#FFD441"></path><path d="M24.5003 39.0003C24.0003 40.1003 24.2003 41.1003 24.4003 42.2003C24.5003 43.1003 24.8003 43.9003 25.1003 44.8003C25.4003 45.7003 25.2003 45.0003 25.3003 45.0003C25.4003 45.0003 25.3003 45.0003 25.3003 44.9003C25.3003 43.8003 25.3003 41.7003 25.3003 40.8003C25.4003 40.0003 25.3003 38.6003 25.8003 37.8003C26.2003 37.0003 24.9003 38.1003 24.4003 39.2003L24.5003 39.0003Z" fill="white"></path><path d="M24.4006 39.0003C24.7006 38.2003 25.6006 37.3003 25.9006 37.3003C25.9006 37.3003 26.0006 37.3003 26.1006 37.3003C26.1006 37.3003 26.1006 37.5003 26.1006 37.7003C25.8006 38.3003 25.8006 39.2003 25.7006 39.9003C25.7006 40.2003 25.7006 40.4003 25.7006 40.7003C25.6006 41.6003 25.7006 43.4003 25.7006 44.8003C25.7006 44.8003 25.7006 44.9003 25.7006 45.0003C25.7006 45.0003 25.7006 45.0003 25.6006 45.0003C25.4006 45.0003 25.3006 45.0003 25.2006 44.8003C24.9006 44.0003 24.7006 43.1003 24.5006 42.2003C24.4006 41.4003 24.3006 40.6003 24.4006 39.9003C24.5006 39.2003 24.5006 39.3003 24.7006 39.0003H24.4006ZM25.3006 40.7003C25.3006 40.5003 25.3006 40.2003 25.3006 39.9003C25.3006 39.1003 25.4006 38.2003 25.7006 37.6003C25.4006 37.8003 24.8006 38.4003 24.5006 39.1003C24.1006 40.1003 24.2006 41.1003 24.4006 42.1003C24.5006 43.1003 24.8006 44.0003 25.1006 44.7003C25.1006 43.3003 25.1006 41.4003 25.1006 40.6003L25.3006 40.7003Z" fill="#612A7A"></path><path d="M24.7996 32.9003C24.7996 32.9003 20.9996 41.7003 19.9996 43.6003C18.9996 45.5003 20.2996 44.9003 21.6996 42.0003C21.6996 42.0003 18.9996 46.8003 19.2996 46.9003C19.5996 47.0003 22.2996 42.3003 22.2996 42.3003C22.2996 42.3003 19.6996 47.6003 20.0996 47.8003C20.4996 48.0003 22.9996 42.7003 22.9996 42.7003C22.9996 42.7003 20.6996 47.5003 21.0996 47.7003C21.4996 47.9003 23.6996 43.0003 23.6996 43.0003L27.3996 34.3003L24.9996 32.8003L24.7996 32.9003Z" fill="white"></path><path d="M20.1 44.5002C20 44.6002 19.8 44.7002 19.7 44.7002H19.5C19.4 44.5002 19.5 44.0002 19.8 43.6003C20.8 41.8003 24.6 33.0002 24.6 33.0002L27 34.5002C27 34.5002 27 34.5003 27 34.6003L23.3 43.3002C22.8 44.4002 21.2 47.9002 20.7 48.0002H20.6C20.6 48.0002 20.4 47.8002 20.8 46.7002C19.9 48.3002 19.8 48.2003 19.7 48.1003C19.7 48.1003 19.7 48.1002 19.7 48.0002C19.6 47.7002 20.2 46.3002 20.8 44.9002C19.4 47.3002 19.2 47.2003 19.1 47.1003C19.1 47.1003 19.1 47.1002 19.1 47.0002C19.1 47.0002 19.1 47.0002 19.1 46.8002C19.1 46.4002 19.6 45.5002 20.1 44.5002ZM22.3 42.3002C21.2 44.6002 20.1 47.1003 20 47.6003C20.4 47.3003 21.5 45.2003 22.5 43.1003C22.6 42.8003 22.7 42.6003 22.7 42.6003C22.7 42.6003 22.7 42.6003 22.8 42.6003C22.8 42.6003 22.8 42.6002 22.8 42.8002C22.8 42.8002 22.8 43.0002 22.6 43.3002C21.7 45.2002 20.9 47.2002 20.9 47.7002C21.2 47.4002 22.4 45.2003 23.3 43.1003L26.9 34.5002L24.7 33.1003C24.2 34.2003 20.9 42.0002 19.9 43.6003C19.6 44.1003 19.6 44.4002 19.6 44.4002C19.7 44.4002 20 44.1002 20.4 43.5002C20.8 42.8002 21.1 42.2002 21.3 41.8002C21.3 41.8002 21.3 41.8002 21.4 41.8002C21.4 41.8002 21.4 41.8002 21.4 41.9002C21.1 42.6002 20.8 43.1003 20.5 43.6003C19.7 45.0002 19.1 46.3003 19 46.6003C19.4 46.2003 20.7 44.1003 21.8 42.1003C21.8 42.1003 21.8 42.1003 21.9 42.1003C21.9 42.1003 21.9 42.1002 21.9 42.2002L22.3 42.3002Z" fill="#612A7A"></path><path d="M70.6005 33.9004C71.8005 33.7004 72.7005 34.1004 73.7005 34.5004C74.5005 34.8004 75.2005 35.3004 76.0005 35.8004C76.8005 36.3004 76.1005 36.0004 76.0005 36.1004C75.9005 36.2004 76.0005 36.1004 75.9005 36.1004C74.9005 35.8004 72.8005 35.3004 71.9005 35.2004C71.1005 35.2004 69.7005 34.8004 68.8005 34.9004C67.9005 35.1004 69.3005 34.1004 70.4005 33.9004H70.6005Z" fill="white"></path><path d="M71.601 33.8003C72.401 33.8003 73.101 34.1003 73.801 34.4003C74.701 34.8003 75.501 35.3003 76.201 35.7003C76.301 35.7003 76.401 36.0003 76.301 36.1003C76.301 36.1003 76.301 36.2003 76.201 36.2003C76.201 36.2003 76.201 36.2003 76.001 36.2003C74.701 35.8003 72.901 35.4003 72.001 35.3003C71.801 35.3003 71.501 35.3003 71.201 35.2003C70.501 35.1003 69.601 34.9003 68.901 35.0003C68.701 35.0003 68.601 35.0003 68.501 35.0003C68.501 35.0003 68.501 34.9003 68.501 34.8003C68.601 34.5003 69.701 33.9003 70.501 33.8003C70.801 33.8003 71.101 33.8003 71.401 33.8003H71.601ZM76.101 36.0003C76.101 36.0003 76.101 36.0003 76.101 35.9003C75.401 35.4003 74.601 35.0003 73.801 34.6003C72.801 34.2003 71.901 33.8003 70.801 34.0003C70.101 34.1003 69.301 34.6003 69.001 34.8003C69.701 34.7003 70.601 34.8003 71.301 35.0003C71.601 35.0003 71.801 35.0003 72.001 35.1003C72.901 35.2003 74.701 35.7003 76.001 36.0003H76.101Z" fill="#612A7A"></path><path d="M66.4004 31.9002C66.4004 31.9002 76.0004 32.1002 78.1004 31.9002C80.2004 31.7002 79.2004 32.7002 76.0004 32.7002C76.0004 32.7002 81.5004 32.2002 81.5004 32.7002C81.5004 33.2002 76.1004 33.5002 76.1004 33.5002C76.1004 33.5002 82.0004 33.3002 82.0004 33.8002C82.0004 34.3002 76.1004 34.3002 76.1004 34.3002C76.1004 34.3002 81.4004 34.3002 81.5004 34.6002C81.6004 34.9002 76.2004 35.0002 76.2004 35.0002L66.8004 34.7002L66.5004 31.9002H66.4004Z" fill="white"></path><path d="M81.3006 32.5003H81.4006C81.4006 32.5003 81.4006 32.5003 81.4006 32.6003C81.4006 32.7003 81.4006 32.9003 78.6006 33.2003C80.1006 33.2003 81.6006 33.2003 81.8006 33.5003C81.8006 33.5003 81.8006 33.5003 81.8006 33.6003C81.8006 33.7003 81.8006 33.9003 80.0006 34.0003C81.3006 34.0003 81.3006 34.3003 81.3006 34.4003C81.3006 34.4003 81.3006 34.4003 81.3006 34.5003C81.0006 34.9003 77.1006 34.9003 75.9006 34.9003L66.5006 34.6003H66.4006L66.1006 31.8003C66.1006 31.8003 75.7006 32.0003 77.8006 31.8003C78.2006 31.8003 78.8006 31.8003 78.9006 32.0003C78.9006 32.0003 78.9006 32.1003 78.9006 32.2003C78.9006 32.2003 78.7006 32.4003 78.6006 32.4003C79.7006 32.4003 80.7006 32.4003 81.1006 32.4003L81.3006 32.5003ZM76.0006 33.6003C76.0006 33.6003 76.0006 33.6003 76.0006 33.5003C76.0006 33.5003 76.0006 33.4003 76.1006 33.4003C78.4006 33.2003 80.8006 32.9003 81.3006 32.7003C80.9006 32.7003 79.5006 32.7003 77.9006 32.7003C77.4006 32.7003 76.7006 32.8003 76.0006 32.8003C76.0006 32.8003 75.9006 32.8003 75.9006 32.7003C75.9006 32.7003 75.9006 32.6003 76.0006 32.6003C76.4006 32.6003 77.1006 32.6003 77.9006 32.5003C78.6006 32.4003 79.0006 32.2003 79.0006 32.1003C79.0006 32.1003 78.7006 32.0003 78.1006 32.1003C76.2006 32.3003 67.7006 32.1003 66.5006 32.1003L66.8006 34.7003L76.1006 35.0003C78.4006 35.0003 80.8006 35.0003 81.3006 34.7003C80.9006 34.5003 78.8006 34.4003 76.6006 34.5003C76.3006 34.5003 76.1006 34.5003 76.1006 34.5003C76.1006 34.5003 76.0006 34.5003 76.0006 34.4003C76.0006 34.4003 76.0006 34.3003 76.1006 34.3003C76.1006 34.3003 76.3006 34.3003 76.6006 34.3003C79.0006 34.3003 81.3006 34.1003 81.8006 33.9003C81.3006 33.7003 78.6006 33.7003 76.0006 33.7003V33.6003Z" fill="#612A7A"></path><path d="M45.8999 21.7004C45.8999 19.4004 48.9999 18.0004 51.3999 18.6004C53.8999 19.2004 55.1999 24.7004 59.4999 28.0004C63.7999 31.3004 70.3999 29.7004 71.5999 31.0004C72.7999 32.3004 73.0999 35.1004 69.5999 36.1004C65.9999 37.0004 57.4999 35.6004 53.2999 33.2004C50.6999 31.6004 45.7999 28.1004 45.8999 21.8004V21.7004Z" fill="white"></path><path d="M66.7 36.4003C62.5 36.4003 56.4 35.0003 53.2 33.2003C49.7 31.2003 45.6 27.5003 45.7 21.7003C45.7 20.8003 46.2 20.0003 47 19.4003C48.2 18.5003 49.9 18.1003 51.4 18.5003C52.7 18.8003 53.6 20.3003 54.8 22.2003C55.9 24.0003 57.4 26.3003 59.5 27.9003C62.1 29.9003 65.6 30.1003 68.1 30.2003C69.8 30.2003 71.1 30.3003 71.6 30.9003C72.4 31.7003 72.7 32.9003 72.4 33.8003C72.2 34.6003 71.5 35.6003 69.6 36.1003C68.8 36.3003 67.8 36.4003 66.7 36.4003ZM46 21.7003C45.9 27.4003 49.9 31.0003 53.4 33.0003C57.3 35.3003 66 36.9003 69.6 35.9003C71.4 35.4003 72.1 34.5003 72.3 33.7003C72.6 32.8003 72.3 31.7003 71.6 31.0003C71.2 30.5003 69.9 30.5003 68.3 30.4003C65.7 30.3003 62.2 30.1003 59.5 28.0003C57.3 26.3003 55.9 24.0003 54.7 22.2003C53.5 20.4003 52.6 18.9003 51.5 18.6003C50.1 18.3003 48.4 18.6003 47.3 19.5003C46.8 19.9003 46.1 20.6003 46.1 21.7003H46Z" fill="#612A7A"></path><path d="M49.6005 18.7003C52.7005 18.1003 53.1005 20.9003 55.9005 24.7003C58.4005 28.1003 61.1005 29.3003 62.3005 29.6003C67.7005 30.8003 70.4005 30.2003 71.2005 31.1003C72.0005 32.0003 72.3005 34.2003 70.9005 34.9003C69.5005 35.6003 67.1005 35.6003 63.2005 35.1003C59.1005 34.6003 54.3005 34.0003 50.6005 30.5003C46.9005 27.0003 43.2005 20.0003 49.7005 18.7003H49.6005Z" fill="#8DC63F"></path><path d="M43.8998 33.1003C41.2998 33.1003 37.6998 34.3003 36.5998 36.5003C35.4998 38.7003 35.4998 40.4003 35.2998 43.1003C34.5998 56.9003 32.2998 56.4003 31.4998 56.9003C31.4998 56.9003 17.3998 63.6003 17.5998 64.4003C17.7998 65.2003 18.8998 68.2003 19.3998 68.1003C19.8998 68.0003 35.9998 63.9003 38.1998 62.9003C40.6998 61.8003 41.9998 59.2003 42.8998 56.8003C43.7998 54.4003 53.6998 33.2003 43.7998 33.1003H43.8998Z" fill="white"></path><path d="M19.4001 68.3003C19.4001 68.3003 19.3001 68.3003 19.2001 68.3003C18.6001 67.9003 17.6001 65.2003 17.5001 64.5003C17.5001 64.3003 17.4001 63.9003 24.5001 60.3003C28.0001 58.5003 31.5001 56.8003 31.5001 56.8003C31.5001 56.8003 31.7001 56.7003 31.8001 56.6003C32.7001 56.2003 34.6001 55.3003 35.2001 43.0003C35.3001 40.3003 35.4001 38.5002 36.5001 36.4002C37.6001 34.2002 41.2001 32.9003 43.9001 33.0003C45.5001 33.0003 46.7001 33.6003 47.4001 34.7003C50.0001 38.7003 46.6001 48.6003 43.4001 56.2003C43.3001 56.5002 43.2001 56.8002 43.1001 56.9002C42.2001 59.3002 40.9001 62.0003 38.4001 63.1003C36.1001 64.1003 19.7001 68.3003 19.5001 68.3003H19.4001ZM43.8001 33.3003C40.5001 33.3003 37.6001 35.0003 36.8001 36.6003C35.7001 38.7003 35.7001 40.4003 35.5001 43.1003C34.9001 55.6003 32.9001 56.5003 32.0001 57.0003C31.9001 57.0003 31.8001 57.0003 31.7001 57.1003C26.4001 59.6003 18.0001 63.9003 17.8001 64.5003C18.0001 65.6003 19.2001 68.1003 19.5001 68.1003C19.6001 68.1003 36.0001 63.9002 38.3001 62.9002C40.8001 61.8002 42.0001 59.2003 42.9001 56.8003C42.9001 56.7003 43.0001 56.5003 43.2001 56.1003C49.0001 42.4003 48.6001 37.0003 47.2001 34.8003C46.5001 33.7003 45.4001 33.2003 43.9001 33.2003C43.9001 33.2003 43.8001 33.2003 43.7001 33.2003L43.8001 33.3003Z" fill="#612A7A"></path><path d="M43.7005 33.5003C40.4005 32.6003 38.5005 34.7003 37.6005 35.8003C36.7005 36.9003 36.1005 39.7003 36.1005 41.2003C36.1005 43.6003 35.3005 52.1003 34.4005 55.1003C33.5005 58.1003 25.7005 60.5003 22.9005 61.7003C20.1005 62.9003 18.1005 64.5003 18.0005 64.8003C17.9005 65.1003 19.0005 67.8003 19.4005 67.8003C19.8005 67.8003 34.4005 63.7003 35.0005 63.6003C35.6005 63.5003 38.4005 62.8003 39.2005 62.0003C41.3005 60.0003 43.0005 55.0003 43.5005 53.8003C45.4005 49.5003 46.2005 34.2003 43.6005 33.5003H43.7005Z" fill="#D1EDF8"></path><path d="M33.4007 58.2002C33.2007 57.9002 32.6007 57.5002 32.2007 57.2002C31.8007 56.9002 31.7007 56.9002 31.8007 56.7002C31.8007 56.6002 32.0007 56.7002 32.1007 56.7002C32.8007 56.9002 33.8007 56.2002 33.8007 56.2002C33.8007 56.2002 33.9007 56.2002 34.0007 56.2002C34.0007 56.2002 34.0007 56.3002 34.0007 56.4002C34.0007 56.4002 33.2007 57.0002 32.4007 57.0002C32.8007 57.3002 33.4007 57.7002 33.6007 58.1002C33.6007 58.1002 33.6007 58.2002 33.6007 58.3002L33.4007 58.2002Z" fill="#612A7A"></path><path d="M38.0008 63.1002C36.3008 63.1002 34.9008 62.0002 34.8008 61.9002C34.8008 61.9002 34.8008 61.8002 34.8008 61.7002C34.8008 61.7002 34.9008 61.7002 35.0008 61.7002C35.0008 61.7002 36.6008 62.9002 38.3008 62.8002C38.3008 62.8002 38.4008 62.8002 38.4008 62.9002C38.4008 62.9002 38.4008 63.0002 38.3008 63.0002C38.3008 63.0002 38.1008 63.0002 38.0008 63.0002V63.1002Z" fill="#612A7A"></path><path d="M42.4 40C40 41.1 35.5 45.3 36.2 47.6C36.9 49.9 39.6 51.4 41.6 52.8C43.6 54.2 56 58.5 55.9 59.4C55.9 59.4 57.9 78.3 58.5 78.8C59.1 79.3 62.7 80.5 63 80.2C63.3 79.9 64 61.6 65 59.3C66.1 56.8 63.3 54.7 61.6 53C59.9 51.3 45.4 38.8 42.5 40.1L42.4 40Z" fill="white"></path><path d="M62.7003 80.2001C61.8003 80.2001 59.0003 79.2001 58.4003 78.8001C57.8003 78.3001 56.1003 62.5 55.8003 59.4C55.8003 59 51.7003 57.3001 48.7003 56.1001C45.7003 54.9001 42.7003 53.7 41.6003 52.9C41.4003 52.8 41.2003 52.6001 40.9003 52.5001C39.0003 51.2001 36.8003 49.8001 36.2003 47.7001C35.5003 45.2001 40.2003 41 42.4003 39.9C43.7003 39.3 47.1003 41.1001 52.5003 45.2001C56.8003 48.4001 60.8003 52.0001 61.6003 52.8001C61.8003 53.0001 62.1003 53.3001 62.4003 53.5001C64.0003 55.0001 66.0003 56.9001 65.1003 59.2001C64.5003 60.7001 63.9003 68.9001 63.6003 74.4001C63.3003 78.6001 63.2003 79.9001 63.1003 80.1001C63.1003 80.1001 63.0003 80.1001 62.9003 80.2001C62.9003 80.2001 62.9003 80.2001 62.8003 80.2001H62.7003ZM56.0003 59.3001C56.8003 66.8001 58.1003 78.1001 58.6003 78.6001C59.3003 79.1001 62.6003 80.2001 62.9003 80.0001C62.9003 79.8001 63.2003 77.2001 63.3003 74.5001C63.7003 68.7001 64.2003 60.7001 64.9003 59.2001C65.8003 57.1001 63.9003 55.3001 62.3003 53.8001C62.0003 53.5001 61.8003 53.3001 61.5003 53.1001C59.8003 51.4001 45.4003 38.9001 42.5003 40.2001C40.1003 41.3001 35.7003 45.5001 36.4003 47.7001C37.0003 49.7001 39.1003 51.1 41.0003 52.4C41.2003 52.5 41.5003 52.7001 41.7003 52.8001C42.8003 53.5001 45.8003 54.8 48.8003 55.9C53.8003 57.9 56.1003 58.9 56.0003 59.4V59.3001Z" fill="#612A7A"></path><path d="M42.5998 40.3C39.5998 41.9 36.8998 44.2001 36.9998 45.6001C37.0998 47.0001 38.3998 49.3 39.5998 50.2C42.6998 52.7 55.2998 57.3001 56.0998 58.6001C57.0998 60.2001 57.3998 65.9001 57.8998 69.6001C58.2998 72.6001 58.7998 78.1 58.8998 78.4C58.9998 78.7 62.3998 80 62.7998 79.7C63.1998 79.4 63.3998 66.2 63.7998 63.9C64.1998 61.6 65.0998 58.9 65.0998 57.8C65.0998 56.7 62.9998 54.8 62.0998 53.9C61.1998 53 45.0998 39.2 42.6998 40.4L42.5998 40.3Z" fill="#D1EDF8"></path><path d="M58.3004 78.1002C58.3004 78.1002 56.2004 83.3002 57.8004 83.8002C59.5004 84.4002 65.9004 85.6002 68.6004 84.2002C71.3004 82.8002 69.6004 82.2002 66.4004 81.5002C63.2004 80.8002 62.9004 80.7002 63.2004 78.5002C63.5004 76.3002 62.0004 79.4002 58.3004 77.9002V78.1002Z" fill="#612A7A"></path><path d="M61.1006 79.9001C61.1006 79.9001 60.7006 78.4001 61.1006 78.1001C61.6006 77.7001 62.0006 78.2001 62.9006 77.9001C63.8006 77.6001 63.9006 77.6001 63.6006 78.8001C63.3006 80.0001 62.6006 81.4001 62.6006 81.4001C62.6006 81.4001 61.4006 82.2001 61.2006 80.0001L61.1006 79.9001Z" fill="#612A7A"></path><path d="M65.4004 82.5002C65.4004 82.5002 65.4004 82.4002 65.4004 82.3002L66.3004 81.7002C66.3004 81.7002 66.4004 81.7002 66.5004 81.7002C66.5004 81.7002 66.5004 81.8002 66.5004 81.9002L65.6004 82.5002H65.4004Z" fill="white"></path><path d="M64.3008 82.3002C64.3008 82.3002 64.3008 82.2003 64.3008 82.1003L65.2008 81.5002C65.2008 81.5002 65.3008 81.5002 65.4008 81.5002C65.4008 81.5002 65.4008 81.6002 65.4008 81.7002L64.5008 82.3002H64.3008Z" fill="white"></path><path d="M63.3008 82.0002C63.3008 82.0002 63.3008 81.9002 63.3008 81.8002L64.2008 81.2002C64.2008 81.2002 64.3008 81.2002 64.4008 81.2002C64.4008 81.2002 64.4008 81.3002 64.4008 81.4002L63.5008 82.0002H63.3008Z" fill="white"></path><path d="M19.0004 63.4001C19.0004 63.4001 13.4004 63.1001 13.4004 64.8001C13.4004 66.6001 14.3004 73.1001 16.5004 75.1001C18.7004 77.1001 18.7004 75.4001 18.3004 72.2001C17.9004 69.0001 17.9004 68.6001 20.0004 68.2001C22.1004 67.8001 18.7004 67.3001 19.0004 63.4001Z" fill="#612A7A"></path><path d="M18.3001 66.7C18.3001 66.7 19.6001 65.9 20.0001 66.1C20.6001 66.4 20.2001 67 20.8001 67.7C21.4001 68.4 21.4001 68.6 20.2001 68.6C19.0001 68.6 17.5001 68.6 17.5001 68.6C17.5001 68.6 16.4001 67.7 18.4001 66.8L18.3001 66.7Z" fill="#612A7A"></path><path d="M18.2008 72.2001L17.3008 71.6002C17.3008 71.6002 17.3008 71.5001 17.3008 71.4001C17.3008 71.4001 17.4008 71.4001 17.5008 71.4001L18.4008 72.0002C18.4008 72.0002 18.4008 72.1001 18.4008 72.2001H18.2008Z" fill="white"></path><path d="M18.0006 71.1001L17.1006 70.5C17.1006 70.5 17.1006 70.4 17.1006 70.3C17.1006 70.3 17.2006 70.3 17.3006 70.3L18.2006 70.9C18.2006 70.9 18.2006 71.0001 18.2006 71.1001H18.0006Z" fill="white"></path><path d="M18.0006 70.2001L17.1006 69.6002C17.1006 69.6002 17.1006 69.5001 17.1006 69.4001C17.1006 69.4001 17.2006 69.4001 17.3006 69.4001L18.2006 70.0002C18.2006 70.0002 18.2006 70.1001 18.2006 70.2001H18.0006Z" fill="white"></path><path d="M56.0006 59.1001C55.9006 59.1001 55.8006 59.1001 55.8006 59.0001C55.8006 58.9001 55.8006 58.8001 56.0006 58.8001C56.7006 58.5001 56.9006 57.3001 56.9006 57.3001C56.9006 57.3001 56.9006 57.2001 57.0006 57.3001C57.0006 57.3001 57.1006 57.3001 57.0006 57.4001C57.0006 57.4001 56.8006 58.4001 56.2006 58.9001C56.7006 58.9001 57.4006 58.8001 57.8006 58.9001C57.8006 58.9001 57.9006 58.9001 57.8006 59.0001C57.8006 59.0001 57.8006 59.1001 57.7006 59.0001C57.3006 59.0001 56.6006 59.0001 56.1006 59.0001C55.9006 59.0001 55.7006 59.0001 55.6006 59.0001L56.0006 59.1001Z" fill="#612A7A"></path><path d="M61.7006 60.7001C61.7006 60.7001 61.6006 60.7001 61.6006 60.6001C61.6006 60.6001 61.6006 60.5001 61.7006 60.5001C61.7006 60.5001 63.7006 60.3001 64.8006 59.1001C64.8006 59.1001 64.9006 59.1001 65.0006 59.1001C65.0006 59.1001 65.0006 59.2001 65.0006 59.3001C63.8006 60.6001 61.8006 60.8001 61.7006 60.8001V60.7001Z" fill="#612A7A"></path><path d="M35.8007 46.7C37.3007 46.9 49.8007 47.1 51.5007 44.4C53.2007 41.7 53.7007 30.4 53.6007 28.4C53.5007 26.4 54.2007 22.1 52.4007 19.2C50.9007 17 43.8007 8.39999 37.6007 21.5C31.4007 34.6 32.8007 46.2 35.8007 46.7Z" fill="white"></path><path d="M38.7005 46.9001C37.2005 46.9001 36.0005 46.9001 35.7005 46.8001C35.1005 46.8001 34.6005 46.2001 34.2005 45.4001C32.4005 42.0001 32.2005 32.4001 37.4005 21.4001C39.6005 16.8001 42.1005 14.4001 44.8005 14.2001C48.2005 14.0001 51.2005 17.2001 52.4005 19.1001C53.8005 21.3001 53.7005 24.4001 53.7005 26.7001C53.7005 27.3001 53.7005 27.9001 53.7005 28.3001C53.7005 30.2001 53.3005 41.7001 51.6005 44.4001C50.3005 46.5001 43.0005 46.9001 38.7005 46.9001ZM35.8005 46.6001C37.4005 46.9001 49.8005 46.9001 51.4005 44.3001C53.1005 41.6001 53.6005 30.3001 53.5005 28.4001C53.5005 28.0001 53.5005 27.4001 53.5005 26.8001C53.5005 24.6001 53.7005 21.5001 52.3005 19.3001C52.2005 19.1001 49.0005 14.3001 44.9005 14.5001C42.2005 14.7001 39.8005 17.0001 37.7005 21.5001C32.6005 32.4001 32.7005 42.0001 34.5005 45.3001C34.9005 46.0001 35.3005 46.5001 35.8005 46.5001V46.6001Z" fill="#612A7A"></path><path d="M34.7007 45.2001C35.0007 46.0001 39.4007 46.1001 43.2007 46.1001C47.0007 46.1001 51.2007 44.6001 51.7007 43.1001C52.5007 40.7001 54.1007 22.2001 52.0007 19.2001C49.9007 16.2001 43.6007 14.3001 41.4007 16.4001C39.2007 18.5001 31.2007 35.7001 34.6007 45.3001L34.7007 45.2001Z" fill="#8DC63F"></path><path d="M42.3002 17.8001C44.5002 18.6001 44.9002 21.9001 43.6002 24.0001C42.3002 26.2001 36.7002 25.7001 32.2002 28.7001C27.7002 31.7001 27.1002 39.8001 25.5002 40.5001C23.9002 41.2001 21.1002 40.7001 21.3002 37.0001C21.5002 33.3001 25.6002 24.4001 29.3002 21.2001C33.0002 18.0001 36.5002 15.6001 42.4002 17.7001L42.3002 17.8001Z" fill="white"></path><path d="M24.1004 41.0001C23.5004 41.0001 22.9004 40.8001 22.4004 40.5001C21.7004 40.1001 21.0004 39.1001 21.1004 37.1001C21.3004 33.3001 25.5004 24.4001 29.1004 21.2001C32.1004 18.5001 36.9004 15.8001 42.3004 17.7001C43.1004 18.0001 43.8004 18.7001 44.1004 19.6001C44.6004 21.0001 44.4004 22.8001 43.6004 24.1001C42.9004 25.2001 41.2004 25.6001 39.1004 26.2001C37.0004 26.7001 34.4004 27.4001 32.2004 28.9001C29.5004 30.7001 28.2004 34.5001 27.2004 37.2001C26.6004 39.0001 26.1004 40.4001 25.4004 40.7001C25.0004 40.9001 24.5004 41.0001 24.0004 41.0001H24.1004ZM38.7004 17.3001C34.9004 17.3001 31.6004 19.4001 29.3004 21.4001C25.8004 24.5001 21.6004 33.4001 21.4004 37.1001C21.3004 39.0001 22.0004 39.9001 22.6004 40.3001C23.4004 40.8001 24.5004 40.9001 25.4004 40.5001C26.0004 40.2001 26.5004 38.8001 27.0004 37.1001C28.0004 34.3001 29.3004 30.5001 32.1004 28.6001C34.4004 27.1001 37.0004 26.4001 39.1004 25.9001C41.2004 25.4001 42.9004 25.0001 43.5004 23.9001C44.3004 22.6001 44.5004 21.0001 44.0004 19.6001C43.8004 19.0001 43.3004 18.1001 42.3004 17.8001C41.1004 17.4001 39.9004 17.2001 38.7004 17.2001V17.3001Z" fill="#612A7A"></path><path d="M43.9006 22.2001C43.5006 25.4001 40.8006 24.8002 36.2006 26.3002C31.6006 27.8002 30.2006 29.8001 29.6006 30.9001C26.7006 35.7001 26.4006 39.6002 25.3006 40.1002C24.2006 40.6002 22.0006 40.1002 21.8006 38.6002C21.6006 37.1002 22.4006 33.6001 24.1006 30.0001C25.8006 26.4002 27.9006 21.8001 32.4006 19.4001C36.9006 17.0001 44.7006 15.6001 43.9006 22.2001Z" fill="#8DC63F"></path><path d="M46.4997 20.1002C45.6997 20.0002 38.4997 18.2002 37.8997 14.3002C37.2997 10.4002 39.0997 0.000156522 47.8997 0.900156C54.0997 1.60016 54.2997 11.4002 53.9997 14.1002C53.4997 18.3002 48.8997 19.7002 48.8997 19.7002C48.8997 19.7002 47.4997 20.1002 46.4997 20.0002V20.1002Z" fill="white"></path><path d="M47.0002 20.3003C46.8002 20.3003 46.7002 20.3003 46.5002 20.3003C45.5002 20.2003 38.4002 18.3003 37.8002 14.4003C37.5002 12.6003 38.2002 6.50025 41.5002 3.20025C43.2002 1.40025 45.4002 0.700251 47.9002 0.900251C49.4002 1.10025 50.7002 1.80026 51.7002 3.00026C54.2002 6.10026 54.4002 11.9003 54.1002 14.2003C53.6002 18.4003 49.0002 19.9003 49.0002 19.9003C49.0002 19.9003 47.9002 20.2003 47.0002 20.2003V20.3003ZM46.6002 20.0003C47.5002 20.1003 48.9002 19.7003 48.9002 19.7003C48.9002 19.7003 53.4002 18.2003 53.9002 14.2003C54.2002 11.9003 53.9002 6.20026 51.5002 3.10026C50.5002 1.90026 49.3002 1.20026 47.9002 1.10026C45.5002 0.800264 43.4002 1.60026 41.7002 3.30026C38.6002 6.60026 37.8002 12.6003 38.1002 14.3003C38.4002 16.3003 40.5002 17.7003 42.2002 18.5003C44.1002 19.4003 46.1002 19.9003 46.6002 20.0003Z" fill="#612A7A"></path><path d="M50.8005 18.2001C51.9005 17.3001 53.8005 15.1001 53.7005 12.8001C53.5005 9.20013 53.0005 1.40013 47.9005 1.30013C41.5005 1.10013 39.9005 6.00013 39.1005 8.80013C37.7005 14.0001 37.3005 17.3001 46.0005 19.7001C47.9005 20.2001 50.1005 18.7001 50.7005 18.2001H50.8005Z" fill="#8DC63F"></path><path d="M52.1 6.70029C52.1 6.70029 52 6.7003 52 6.6003C52 6.0003 52 5.40028 52 5.40028V5.30029H52.1C52.1 5.30029 52.2 5.90029 52.1 6.50029C52.1 6.50029 52.1 6.6003 52 6.6003L52.1 6.70029Z" fill="#612A7A"></path><path d="M48.8002 19.1001C48.8002 19.1001 48.8002 19.1001 48.7002 19.1001C48.7002 19.1001 48.7002 19.0001 48.7002 18.9001C54.2002 16.5001 51.9002 8.40009 51.8002 8.30009C51.8002 8.30009 51.8002 8.2001 51.8002 8.1001C51.8002 8.1001 51.9002 8.1001 52.0002 8.1001C52.0002 8.1001 54.5002 16.4001 48.7002 19.0001L48.8002 19.1001Z" fill="#612A7A"></path><path d="M45.7667 16.6595L49.265 16.7694C50.3138 16.8024 51.1908 15.9789 51.2237 14.93L51.5379 4.93498C51.5708 3.88616 50.7473 3.00919 49.6985 2.97623L46.2002 2.86629C45.1514 2.83333 44.2744 3.65686 44.2414 4.70568L43.9273 14.7007C43.8944 15.7496 44.7179 16.6265 45.7667 16.6595Z" fill="white"></path><path d="M47.5999 16.9001C47.5999 16.9001 47.5999 16.9001 47.4999 16.9001C45.3999 16.9001 43.8 15.1002 43.9 13.0002L44.0999 6.50015C44.0999 5.50015 44.5999 4.60015 45.2999 3.90015C45.9999 3.20015 46.9999 2.90015 47.9999 2.90015C50.0999 2.90015 51.6999 4.70016 51.5999 6.80016L51.4 13.3002C51.4 15.3002 49.6999 16.9001 47.5999 16.9001ZM47.4999 16.6002C49.3999 16.6002 51.0999 15.1001 51.0999 13.2001L51.3 6.70015C51.3 4.80015 49.8 3.10016 47.9 3.10016C47 3.10016 46.1 3.40016 45.4 4.10016C44.7 4.70016 44.2999 5.60016 44.2999 6.60016L44.0999 13.1002C44.0999 15.0002 45.5999 16.7001 47.4999 16.7001V16.6002Z" fill="#612A7A"></path><path d="M49.6998 12.4003H48.3998C48.3998 12.4003 48.2998 12.4003 48.2998 12.2003C48.2998 12.2003 48.2998 12.1003 48.3998 12.1003H49.3998L48.8998 9.90028V9.80029H48.9998L49.4998 12.4003H49.6998Z" fill="#612A7A"></path><path d="M44.1005 7.50019C44.1005 7.50019 44.2005 6.5002 44.9005 6.6002C46.0005 6.7002 47.5005 6.90019 48.6005 7.00019C50.4005 7.00019 51.4005 6.70019 51.4005 6.70019C51.4005 6.70019 53.5005 2.00019 47.6005 1.80019C41.6005 1.50019 44.1005 7.50019 44.1005 7.50019Z" fill="#612A7A"></path><path d="M45.3008 6.60034C45.3008 6.60034 50.1008 8.30034 53.6008 8.10034C57.1008 7.90034 51.5008 6.70033 51.5008 6.70033C51.5008 6.70033 50.5008 7.10034 48.8008 7.00034C47.1008 6.90034 46.3008 6.80034 45.3008 6.60034Z" fill="#FFD441"></path><path d="M52.9006 8.20024C49.5006 8.20024 45.3006 6.70024 45.3006 6.70024L44.6006 6.50024H45.3006C46.2006 6.60024 47.7006 6.80024 48.8006 6.90024C50.4006 6.90024 51.4006 6.60025 51.4006 6.60025C52.9006 6.90025 54.8006 7.40025 54.7006 7.80025C54.7006 8.00025 54.5006 8.10024 53.4006 8.20024C53.2006 8.20024 53.0006 8.20024 52.7006 8.20024H52.9006ZM46.7006 6.90024C48.4006 7.40024 51.3006 8.10024 53.6006 7.90024C54.4006 7.90024 54.6006 7.80024 54.6006 7.70024C54.5006 7.50024 52.9006 7.00024 51.5006 6.70024C51.3006 6.70024 50.3006 7.10024 48.8006 7.00024C48.2006 7.00024 47.4006 7.00025 46.7006 6.80025V6.90024Z" fill="#612A7A"></path><path d="M48.8003 19.1003C48.8003 19.1003 43.6003 18.2003 42.8003 13.1003C42.3003 9.90026 43.8003 3.60025 43.8003 3.50025C43.8003 3.50025 43.8003 3.40025 43.9003 3.50025C43.9003 3.50025 44.0003 3.50026 43.9003 3.60026C43.9003 3.60026 42.4003 9.90026 42.9003 13.1003C43.6003 18.0003 48.6003 18.8002 48.7003 18.9002C48.7003 18.9002 48.8003 18.9003 48.8003 19.0003C48.8003 19.0003 48.8003 19.1003 48.7003 19.1003H48.8003Z" fill="#612A7A"></path><path d="M48.7 3.60025H50.4C50.5 3.60025 50.6 3.80024 50.6 3.90024V5.40024C50.6 5.50024 50.6 5.60025 50.5 5.60025H50.1L49.9 5.90024C49.9 5.90024 49.8 5.90024 49.7 5.90024L49.5 5.70024H49C48.9 5.70024 48.7 5.70024 48.7 5.50024L48.5 3.80025C48.5 3.70025 48.6 3.50024 48.8 3.50024L48.7 3.60025Z" fill="white"></path><path d="M46.9004 9.30025C46.9004 9.70025 47.1004 10.0002 47.3004 10.0002C47.5004 10.0002 47.7004 9.80024 47.7004 9.50024C47.7004 9.50024 47.7004 9.40025 47.7004 9.30025C47.7004 9.20025 47.7004 9.20025 47.7004 9.10025C47.7004 8.80025 47.5004 8.50024 47.3004 8.50024C47.1004 8.50024 46.9004 8.80024 46.9004 9.20024V9.30025Z" fill="#612A7A"></path><path d="M47.3008 9.40019C47.3008 9.40019 47.5008 9.6002 47.7008 9.6002C47.7008 9.6002 47.7008 9.50019 47.7008 9.40019C47.7008 9.30019 47.7008 9.3002 47.7008 9.2002C47.5008 9.2002 47.3008 9.2002 47.3008 9.3002V9.40019Z" fill="white"></path><path d="M50.2998 9.40009C50.2998 9.80009 50.4998 10.1001 50.6998 10.1001C50.8998 10.1001 51.0998 9.9001 51.0998 9.6001C51.0998 9.6001 51.0998 9.50009 51.0998 9.40009C51.0998 9.30009 51.0998 9.30009 51.0998 9.20009C51.0998 8.90009 50.8998 8.6001 50.6998 8.6001C50.4998 8.6001 50.2998 8.90009 50.2998 9.30009V9.40009Z" fill="#612A7A"></path><path d="M50.7002 9.50005C50.7002 9.50005 50.9002 9.70004 51.1002 9.70004C51.1002 9.70004 51.1002 9.60005 51.1002 9.50005C51.1002 9.40005 51.1002 9.40005 51.1002 9.30005C50.9002 9.30005 50.7002 9.30004 50.7002 9.40004V9.50005Z" fill="white"></path><path d="M48.7002 14.7001C48.4002 14.7001 48.0002 14.5001 47.7002 14.2001C47.7002 14.2001 47.7002 14.1002 47.7002 14.0002C47.7002 14.0002 47.8002 14.0002 47.9002 14.0002C48.3002 14.3002 48.6002 14.5001 48.9002 14.4001C49.3002 14.4001 49.5002 13.9001 49.5002 13.9001C49.5002 13.9001 49.6002 13.9001 49.7002 13.9001C49.7002 13.9001 49.7002 14.0002 49.7002 14.1002C49.7002 14.1002 49.4002 14.6001 48.9002 14.7001C48.9002 14.7001 48.9002 14.7001 48.8002 14.7001H48.7002Z" fill="#612A7A"></path><path d="M48.4004 26.4002C48.4004 26.4002 47.0004 25.3002 47.9004 23.5002C48.2004 22.9002 48.3004 22.2002 48.3004 21.5002C48.3004 20.9002 48.4004 20.2002 48.6004 19.6002C48.6004 19.5002 48.7004 19.2002 49.0004 19.2002C49.6004 19.2002 49.8004 22.4002 49.8004 22.5002C49.8004 22.9002 49.8004 23.3002 49.6004 23.7002C49.4004 24.4002 49.3004 25.0002 49.6004 25.2002C49.6004 25.2002 49.6004 25.3002 49.6004 25.4002C49.6004 25.5002 49.5004 25.4002 49.4004 25.4002C48.9004 25.1002 49.1004 24.3002 49.3004 23.6002C49.3004 23.2002 49.5004 22.8002 49.5004 22.5002C49.5004 21.5002 49.1004 19.6002 48.9004 19.5002C48.9004 19.5002 48.9004 19.5002 48.8004 19.7002C48.6004 20.3002 48.5004 21.0002 48.5004 21.6002C48.5004 22.4002 48.4004 23.1002 48.1004 23.7002C47.3004 25.3002 48.5004 26.3002 48.5004 26.3002C48.5004 26.3002 48.5004 26.4002 48.5004 26.5002L48.4004 26.4002Z" fill="#612A7A"></path><path d="M47.0002 45.1002C47.0002 45.1002 47.0002 45.1002 46.9002 45.1002L44.2002 40.7002H44.5002C44.5002 40.7002 45.9002 40.9002 46.7002 40.0002C47.0002 39.7002 47.1002 39.4002 47.1002 39.1002C47.1002 38.5002 46.5002 38.0002 46.5002 38.0002L46.3002 37.8002L52.8002 36.2002H52.9002V36.3002L46.8002 37.7002C47.0002 37.9002 47.3002 38.3002 47.3002 38.8002C47.3002 39.2002 47.2002 39.6002 46.9002 39.9002C46.2002 40.7002 45.2002 40.7002 44.7002 40.7002L47.2002 44.7002C47.2002 44.7002 47.2002 44.8002 47.2002 44.9002L47.0002 45.1002Z" fill="#612A7A"></path><path d="M85.4002 83.8002C89.6528 83.8002 93.1002 80.3528 93.1002 76.1002C93.1002 71.8476 89.6528 68.4001 85.4002 68.4001C81.1476 68.4001 77.7002 71.8476 77.7002 76.1002C77.7002 80.3528 81.1476 83.8002 85.4002 83.8002Z" fill="#8DC63F"></path><path d="M85.4006 84.0002C81.1006 84.0002 77.6006 80.5001 77.6006 76.2001C77.6006 71.9001 81.1006 68.4001 85.4006 68.4001C89.7006 68.4001 93.2006 71.9001 93.2006 76.2001C93.2006 80.5001 89.7006 84.0002 85.4006 84.0002ZM85.4006 68.5002C81.2006 68.5002 77.8006 71.9002 77.8006 76.1002C77.8006 80.3002 81.2006 83.7001 85.4006 83.7001C89.6006 83.7001 93.0006 80.3002 93.0006 76.1002C93.0006 71.9002 89.6006 68.5002 85.4006 68.5002Z" fill="#612A7A"></path><path d="M83.8006 78.6001L87.1006 78.8001L87.9006 81.3001L85.3006 82.8001L82.6006 81.0001L83.8006 78.6001Z" fill="#612A7A"></path><path d="M87.501 73.2L89.001 76.1001L91.401 75.9C91.401 75.9 91.701 73.4 91.601 73C91.501 72.6 89.301 71.3 89.101 71.3C88.901 71.3 87.601 73.0001 87.601 73.1001L87.501 73.2Z" fill="#612A7A"></path><path d="M82.5008 70.9C82.5008 70.9 84.1008 72.8 84.1008 72.9C84.1008 73 82.1008 75.6001 82.1008 75.6001C82.1008 75.6001 79.7008 75.3001 79.6008 75.1001C79.5008 74.9001 79.6008 72.4 79.8008 72.2C80.0008 72 82.0008 70.9 82.5008 70.8V70.9Z" fill="#612A7A"></path><path d="M90.3008 82.0001C90.3008 82.0001 91.6008 80.9001 92.0008 80.1001C92.4008 79.3001 92.9008 78.1001 92.9008 78.1001C92.9008 78.1001 92.4008 78.4001 92.1008 78.5001C92.1008 78.5001 92.1008 79.1001 91.4008 80.0001C90.7008 80.9001 90.4008 81.1001 90.4008 81.1001V82.0001H90.3008Z" fill="#612A7A"></path><path d="M80.0002 81.6001C80.0002 81.6001 79.0002 80.5001 78.5002 79.5001C78.0002 78.5001 77.7002 77.1001 77.7002 77.1001C77.7002 77.1001 78.1002 77.5001 78.2002 77.5001C78.3002 77.5001 78.6002 77.6001 78.6002 77.6001C78.6002 77.6001 78.7002 78.6001 79.1002 79.2001C79.5002 79.8001 80.0002 80.4001 80.0002 80.4001C80.0002 80.4001 79.8002 81.0001 80.0002 81.5001V81.6001Z" fill="#612A7A"></path><path d="M83.6006 68.7003C83.6006 68.7003 84.9006 68.5003 85.9006 68.6003C86.9006 68.7003 88.1006 69.1003 88.1006 69.1003C88.1006 69.1003 87.7006 69.1003 87.7006 69.2003C87.7006 69.3003 87.5006 69.4003 87.5006 69.4003C87.5006 69.4003 86.8006 69.0003 86.1006 69.0003C85.4006 69.0003 84.4006 69.1003 84.4006 69.1003L83.6006 68.6003V68.7003Z" fill="#612A7A"></path><path d="M82.5008 71.2H82.3008C82.3008 71 83.6008 69.2 84.6008 68.8V69C83.8008 69.4 82.5008 71.1 82.5008 71.2Z" fill="#612A7A"></path><path d="M89.1006 71.8002C89.1006 71.8002 88.7006 70.9002 88.2006 70.2002C87.7006 69.6002 87.1006 69.2002 87.1006 69.2002V69.0002C87.2006 69.0002 87.9006 69.4003 88.4006 70.1003C88.9006 70.8003 89.3006 71.7002 89.3006 71.7002H89.1006V71.8002Z" fill="#612A7A"></path><path d="M91.9536 72.8164L91.1582 73.2375L91.2518 73.4143L92.0472 72.9932L91.9536 72.8164Z" fill="#612A7A"></path><path d="M92.1004 78.7C92.1004 78.7 92.1004 77.7 91.8004 77C91.6004 76.3 90.9004 75.5 90.9004 75.5L91.1004 75.3C91.1004 75.3 91.8004 76.1 92.1004 76.9C92.3004 77.7 92.4004 78.7 92.4004 78.7H92.2004H92.1004Z" fill="#612A7A"></path><path d="M87.0008 79L86.8008 78.8C86.8008 78.8 87.5008 78 88.1008 77.2C88.7008 76.4 88.9008 75.8 88.9008 75.8H89.1008C89.1008 75.9 88.9008 76.6 88.3008 77.4C87.7008 78.2 87.0008 79 87.0008 79Z" fill="#612A7A"></path><path d="M82.0083 75.0686L81.832 75.1631L83.675 78.6002L83.8512 78.5057L82.0083 75.0686Z" fill="#612A7A"></path><path d="M87.7008 73.5001C86.7008 72.8001 83.8008 73.1001 83.8008 73.1001V72.9C83.8008 72.9 86.7008 72.5001 87.8008 73.3001V73.5001H87.7008Z" fill="#612A7A"></path><path d="M78.501 78.2C78.501 76.6 79.801 74.9 79.801 74.8L80.001 75C80.001 75 78.701 76.7 78.701 78.2H78.501Z" fill="#612A7A"></path><path d="M82.4002 81.2002C80.4002 81.2002 79.7002 80.5002 79.7002 80.4002L79.9002 80.2002C79.9002 80.2002 80.7002 81.0002 83.1002 80.9002V81.1002C82.9002 81.1002 82.7002 81.1002 82.5002 81.1002L82.4002 81.2002Z" fill="#612A7A"></path><path d="M89.001 81.6002C88.201 81.6002 87.601 81.4002 87.501 81.4002V81.2002C87.601 81.2002 89.001 81.7002 90.501 81.2002V81.4002C90.001 81.7002 89.401 81.7002 89.001 81.7002V81.6002Z" fill="#612A7A"></path><path d="M85.0912 82.2456L84.9424 83.6377L85.1413 83.6589L85.29 82.2669L85.0912 82.2456Z" fill="#612A7A"></path><path d="M79.0267 71.7111L78.9355 71.8892L80.0928 72.4814L80.1839 72.3033L79.0267 71.7111Z" fill="#612A7A"></path><path d="M81.3002 15.3L78.8002 16.2L77.8002 18.9L76.9002 16.3L74.2002 15.3L76.9002 14.3L77.8002 11.8L78.7002 14.4L81.3002 15.3Z" fill="#612A7A"></path><path d="M15.6 46.9L13 47.8L12.1 50.4L11.1 47.8L8.5 46.9L11.2 45.9L12.1 43.3L13 46L15.6 46.9Z" fill="#612A7A"></path><path d="M23.1 16.1001L21.8 16.5L21.3 17.9L20.8 16.5L19.5 16.1001L20.8 15.6001L21.3 14.3L21.8 15.6001L23.1 16.1001Z" fill="#612A7A"></path><path d="M39.5008 86.4C41.8204 86.4 43.7008 84.5196 43.7008 82.2C43.7008 79.8804 41.8204 78 39.5008 78C37.1812 78 35.3008 79.8804 35.3008 82.2C35.3008 84.5196 37.1812 86.4 39.5008 86.4Z" fill="white"></path></svg> 